<?xml version="1.0" standalone="no"?><!DOCTYPE svg PUBLIC "-//W3C//DTD SVG 1.1//EN" "http://www.w3.org/Graphics/SVG/1.1/DTD/svg11.dtd"><svg class="icon" height="512" viewBox="0 0 1024 1024" version="1.1" xmlns="http://www.w3.org/2000/svg"><path d="M975.127273 972.8c0-4.654545 0-9.309091-2.327273-11.636364-20.945455-165.236364-130.327273-302.545455-276.945455-365.381818C781.963636 535.272727 837.818182 437.527273 837.818182 325.818182c0-179.2-146.618182-325.818182-325.818182-325.818182S186.181818 146.618182 186.181818 325.818182c0 111.709091 55.854545 209.454545 141.963637 269.963636-146.618182 62.836364-253.672727 197.818182-276.945455 360.727273-2.327273 4.654545-4.654545 11.636364-4.654545 16.290909v4.654545c0 25.6 20.945455 46.545455 46.545454 46.545455s46.545455-20.945455 46.545455-46.545455c20.945455-179.2 172.218182-321.163636 358.4-325.818181h23.272727c186.181818 6.981818 335.127273 146.618182 358.4 325.818181h4.654545c0 25.6 20.945455 46.545455 46.545455 46.545455s46.545455-20.945455 46.545454-46.545455l-2.327272-4.654545zM512 558.545455c-128 0-232.727273-104.727273-232.727273-232.727273S384 93.090909 512 93.090909s232.727273 104.727273 232.727273 232.727273-104.727273 232.727273-232.727273 232.727273z" fill="white" /></svg>